<svg id="Layer_1" data-name="Layer 1" xmlns="http://www.w3.org/2000/svg" viewBox="0 0 186.69 154.21"><defs><style>.cls-1{font-size:45.53px;letter-spacing:-0.05em;}.cls-1,.cls-44{font-family:Switzer-Bold, Switzer;font-weight:700;}.cls-2{letter-spacing:-0.03em;}.cls-3{letter-spacing:-0.02em;}.cls-4{letter-spacing:-0.04em;}.cls-5{letter-spacing:-0.03em;}.cls-6{letter-spacing:-0.02em;}.cls-7{font-size:25.41px;font-family:Switzer-Semibold, Switzer;font-weight:600;}.cls-8{letter-spacing:-0.08em;}.cls-9{font-size:2.83px;font-family:CutiveMono-Regular, Cutive Mono;}.cls-10,.cls-28{font-size:5.09px;}.cls-10,.cls-11,.cls-43{fill:#1a1a1a;}.cls-10,.cls-11,.cls-28,.cls-47{font-family:ApfelGrotezk-Regular, Apfel Grotezk;}.cls-11{font-size:5.37px;letter-spacing:-0.01em;}.cls-12{letter-spacing:-0.01em;}.cls-13{letter-spacing:-0.02em;}.cls-14{letter-spacing:-0.02em;}.cls-15{letter-spacing:-0.03em;}.cls-16{letter-spacing:0em;}.cls-17{letter-spacing:-0.01em;}.cls-18{letter-spacing:0em;}.cls-19{letter-spacing:-0.01em;}.cls-20{letter-spacing:0em;}.cls-21{letter-spacing:-0.01em;}.cls-22{letter-spacing:0em;}.cls-23{letter-spacing:0em;}.cls-24{letter-spacing:0em;}.cls-25{letter-spacing:-0.01em;}.cls-26{letter-spacing:-0.01em;}.cls-27{letter-spacing:0em;}.cls-29{letter-spacing:0em;}.cls-30{letter-spacing:-0.01em;}.cls-31{letter-spacing:-0.01em;}.cls-32{letter-spacing:-0.01em;}.cls-33{letter-spacing:-0.02em;}.cls-34{letter-spacing:-0.02em;}.cls-35{letter-spacing:0em;}.cls-36{letter-spacing:0em;}.cls-37{letter-spacing:0em;}.cls-38{letter-spacing:0.01em;}.cls-39{letter-spacing:-0.02em;}.cls-40{letter-spacing:-0.01em;}.cls-41{letter-spacing:0em;}.cls-42{letter-spacing:-0.03em;}.cls-44{font-size:13.57px;letter-spacing:-0.05em;}.cls-45{letter-spacing:-0.03em;}.cls-46{fill:none;stroke:#000;stroke-miterlimit:10;}.cls-47{font-size:2.92px;}</style></defs><text class="cls-1" transform="translate(0 94.04)">L<tspan class="cls-2" x="22.5" y="0">O</tspan><tspan class="cls-3" x="55.79" y="0">N</tspan><tspan class="cls-4" x="87.08" y="0">D</tspan><tspan class="cls-5" x="117.79" y="0">O</tspan><tspan class="cls-6" x="151.08" y="0">N</tspan></text><text class="cls-7" transform="translate(39.66 115.3)">GUI<tspan class="cls-8" x="42.38" y="0">T</tspan><tspan x="56.23" y="0">ARS</tspan></text><text class="cls-9" transform="translate(115.98 150.88)">A100 000 00000 0</text><text class="cls-10" transform="translate(115.14 135.62)">ROAD WARRIORS</text><text class="cls-11" transform="translate(115.14 125.44)">P<tspan class="cls-12" x="2.98" y="0">R</tspan><tspan class="cls-13" x="6.22" y="0">E </tspan><tspan class="cls-14" x="10.1" y="0">L</tspan><tspan class="cls-15" x="12.65" y="0">O</tspan><tspan class="cls-16" x="16.3" y="0">V</tspan><tspan class="cls-17" x="19.39" y="0">E</tspan><tspan class="cls-13" x="22.3" y="0">D </tspan><tspan class="cls-18" x="26.78" y="0">I</tspan><tspan class="cls-19" x="27.96" y="0">NS</tspan><tspan class="cls-20" x="34.57" y="0">T</tspan><tspan class="cls-21" x="37.53" y="0">R</tspan><tspan class="cls-22" x="40.75" y="0">U</tspan><tspan class="cls-23" x="44.19" y="0">M</tspan><tspan class="cls-17" x="48.45" y="0">E</tspan><tspan class="cls-24" x="51.36" y="0">N</tspan><tspan class="cls-25" x="54.95" y="0">T</tspan><tspan class="cls-13" x="57.87" y="0">S </tspan><tspan class="cls-26" x="61.88" y="0">F</tspan><tspan class="cls-27" x="64.63" y="0">O</tspan><tspan class="cls-13" x="68.41" y="0">R</tspan></text><text class="cls-28" transform="translate(115.14 130.53)"><tspan class="cls-29">N</tspan><tspan class="cls-30" x="3.4" y="0">E</tspan><tspan class="cls-31" x="6.18" y="0">W</tspan><tspan class="cls-30" x="9.88" y="0">C</tspan><tspan x="13.27" y="0">OM</tspan><tspan class="cls-32" x="20.89" y="0">E</tspan><tspan class="cls-33" x="23.65" y="0">R</tspan><tspan class="cls-34" x="26.66" y="0">S </tspan><tspan class="cls-35" x="30.46" y="0">A</tspan><tspan class="cls-36" x="33.54" y="0">N</tspan><tspan class="cls-34" x="36.95" y="0">D </tspan><tspan class="cls-37" x="41.19" y="0">S</tspan><tspan class="cls-38" x="44.11" y="0">E</tspan><tspan class="cls-39" x="47" y="0">A</tspan><tspan class="cls-40" x="50.01" y="0">S</tspan><tspan class="cls-41" x="52.9" y="0">ON</tspan><tspan class="cls-32" x="59.89" y="0">E</tspan><tspan class="cls-42" x="62.65" y="0">D </tspan></text><path class="cls-43" d="M151.2,123.48h-1.68V115h1.68Zm1.26,0h-.84V115h.84Zm.84,0h-.42V115h.42Zm2.1,0h-1.26V115h1.26Zm2.31,0H156V115h1.68Zm1.26,0h-.42V115H159Zm.84,0h-.42V115h.42Zm1.05,0h-.42V115h.42Zm1.26,0h-.42V115h.42Zm1.68,0h-1.26V115h1.26Zm.84,0h-.42V115h.42Zm1.47,0h-1.05V115h1.05Zm2.73,0h-2.1V115h2.1Z" transform="translate(-33.54 24)"/><path class="cls-43" d="M171.73,123.48h-1.68V115h1.68Zm1.26,0h-.84V115H173Zm.84,0h-.42V115h.42Zm2.1,0h-1.26V115h1.26Zm2.31,0h-1.68V115h1.68Zm1.26,0h-.42V115h.42Zm.83,0h-.41V115h.41Zm1,0H181V115h.41Zm1.26,0h-.42V115h.42Zm1.68,0h-1.26V115h1.26Zm.84,0h-.42V115h.42Zm1.47,0h-1V115h1Zm2.73,0h-2.1V115h2.1Z" transform="translate(-33.54 24)"/><text class="cls-44" transform="translate(21.41 141.34)">L<tspan class="cls-45" x="6.75" y="0">G</tspan></text><circle class="cls-46" cx="29.98" cy="136.74" r="16.97"/><text class="cls-47" transform="matrix(-0.7, 0.71, -0.71, -0.7, 40.08, 145.79)">L</text><text class="cls-47" transform="translate(39.12 146.79) rotate(141.92)">O</text><text class="cls-47" transform="translate(37.5 148.06) rotate(150.35)">N</text><text class="cls-47" transform="translate(35.79 149.03) rotate(158.65)">D</text><text class="cls-47" transform="translate(33.97 149.75) rotate(167.18)">O</text><text class="cls-47" transform="matrix(-1, 0.08, -0.08, -1, 31.96, 150.2)">N</text><text class="cls-47" transform="translate(30.02 150.32) rotate(-179)"> </text><text class="cls-47" transform="matrix(-0.99, -0.11, 0.11, -0.99, 29.39, 150.34)">G</text><text class="cls-47" transform="matrix(-0.97, -0.25, 0.25, -0.97, 27.39, 150.1)">U</text><text class="cls-47" transform="translate(25.6 149.61) rotate(-159.98)">I</text><text class="cls-47" transform="translate(24.98 149.4) rotate(-155.14)">T</text><text class="cls-47" transform="translate(23.7 148.83) rotate(-148.89)">A</text><text class="cls-47" transform="matrix(-0.78, -0.62, 0.62, -0.78, 22.18, 147.91)">R</text><text class="cls-47" transform="matrix(-0.7, -0.71, 0.71, -0.7, 20.83, 146.84)">S</text><text x="-33.54" y="24"/><text class="cls-47" transform="matrix(0.7, -0.71, 0.71, 0.7, 20.09, 127.55)">L</text><text class="cls-47" transform="translate(21.05 126.55) rotate(-38.08)">O</text><text class="cls-47" transform="translate(22.68 125.28) rotate(-29.64)">N</text><text class="cls-47" transform="translate(24.38 124.31) rotate(-21.34)">D</text><text class="cls-47" transform="translate(26.2 123.6) rotate(-12.82)">O</text><text class="cls-47" transform="matrix(1, -0.08, 0.08, 1, 28.21, 123.15)">N</text><text class="cls-47" transform="translate(30.15 123.03) rotate(1)"> </text><text class="cls-47" transform="matrix(0.99, 0.11, -0.11, 0.99, 30.78, 123.01)">G</text><text class="cls-47" transform="translate(32.78 123.24) rotate(14.69)">U</text><text class="cls-47" transform="translate(34.57 123.74) rotate(20.02)">I</text><text class="cls-47" transform="matrix(0.91, 0.42, -0.42, 0.91, 35.19, 123.95)">T</text><text class="cls-47" transform="translate(36.47 124.52) rotate(31.11)">A</text><text class="cls-47" transform="translate(37.99 125.44) rotate(38.59)">R</text><text class="cls-47" transform="translate(39.34 126.51) rotate(45.59)">S</text></svg>