<?xml version="1.0" encoding="utf-8"?>
<!-- Generator: Adobe Illustrator 24.3.0, SVG Export Plug-In . SVG Version: 6.00 Build 0)  -->
<svg version="1.1" id="Layer_1" xmlns="http://www.w3.org/2000/svg" xmlns:xlink="http://www.w3.org/1999/xlink" x="0px" y="0px"
	 viewBox="0 0 250 150" style="enable-background:new 0 0 250 150;" xml:space="preserve">
<style type="text/css">
	.st0{fill:none;}
	.st1{font-family:'RubikMonoOne-Regular';}
	.st2{font-size:32.7987px;}
	.st3{letter-spacing:-2;}
	.st4{font-family:'Switzer-Semibold';}
	.st5{font-size:6px;}
</style>
<rect x="10.41" y="39.24" class="st0" width="229.59" height="54.66"/>
<text transform="matrix(1 0 0 1 47.7183 68.2139)"><tspan x="0" y="0" class="st1 st2 st3">london </tspan><tspan x="-12.71" y="24.6" class="st1 st2 st3">guitars</tspan></text>
<rect x="28.63" y="96.47" class="st0" width="193.15" height="13.53"/>
<text transform="matrix(1 0 0 1 79.3442 101.6367)"><tspan x="0" y="0" class="st4 st5">“pre-loved instruments for </tspan><tspan x="-23.77" y="6" class="st4 st5">newcomers and seasoned road warriors”</tspan></text>
<path d="M36.96,82.49h-5.21c-0.68,0-1.34-0.21-1.86-0.65c-0.12-0.11-0.24-0.22-0.35-0.34c-0.45-0.52-0.66-1.19-0.66-1.87v-5.21
	h-0.24v5.21c0,0.68-0.22,1.36-0.66,1.87c-0.11,0.12-0.22,0.24-0.35,0.34c-0.51,0.44-1.18,0.65-1.86,0.65h-5.21v0.24h5.22
	c0.84,0,1.65,0.34,2.2,0.97c0.01,0.01,0.01,0.02,0.02,0.02c0.43,0.51,0.64,1.18,0.64,1.85v5.24h0.24v-5.24
	c0-0.67,0.21-1.34,0.64-1.85c0.05-0.06,0.1-0.12,0.16-0.17c0.54-0.54,1.29-0.82,2.05-0.82h5.23V82.49z"/>
<path d="M230.39,83.49h-5.21c-0.68,0-1.34-0.21-1.86-0.65c-0.12-0.11-0.24-0.22-0.35-0.34c-0.45-0.52-0.66-1.19-0.66-1.87v-5.21
	h-0.24v5.21c0,0.68-0.22,1.36-0.66,1.87c-0.11,0.12-0.22,0.24-0.35,0.34c-0.51,0.44-1.18,0.65-1.86,0.65h-5.21v0.24h5.22
	c0.84,0,1.65,0.34,2.2,0.97c0.01,0.01,0.01,0.02,0.02,0.02c0.43,0.51,0.64,1.18,0.64,1.85v5.24h0.24v-5.24
	c0-0.67,0.21-1.34,0.64-1.85c0.05-0.06,0.1-0.12,0.16-0.17c0.54-0.54,1.29-0.82,2.05-0.82h5.23V83.49z"/>
<polyline class="st0" points="210.83,72.04 194.44,72.04 194.44,88.44 210.83,88.44 "/>
</svg>
