<?xml version="1.0" encoding="utf-8"?>
<!-- Generator: Adobe Illustrator 24.3.0, SVG Export Plug-In . SVG Version: 6.00 Build 0)  -->
<svg version="1.1" id="Layer_1" xmlns="http://www.w3.org/2000/svg" xmlns:xlink="http://www.w3.org/1999/xlink" x="0px" y="0px"
	 viewBox="0 0 250 150" style="enable-background:new 0 0 250 150;" xml:space="preserve">
<style type="text/css">
	.st0{fill:none;}
	.st1{font-family:'RubikMonoOne-Regular';}
	.st2{font-size:32.7987px;}
	.st3{letter-spacing:-2;}
</style>
<rect x="10.41" y="43.24" class="st0" width="229.59" height="54.66"/>
<text transform="matrix(1 0 0 1 47.7183 72.2139)"><tspan x="0" y="0" class="st1 st2 st3">london </tspan><tspan x="-12.71" y="24.6" class="st1 st2 st3">guitars</tspan></text>
<path d="M36.96,86.49h-5.21c-0.68,0-1.34-0.21-1.86-0.65c-0.12-0.11-0.24-0.22-0.35-0.34c-0.45-0.52-0.66-1.19-0.66-1.87v-5.21
	h-0.24v5.21c0,0.68-0.22,1.36-0.66,1.87c-0.11,0.12-0.22,0.24-0.35,0.34c-0.51,0.44-1.18,0.65-1.86,0.65h-5.21v0.24h5.22
	c0.84,0,1.65,0.34,2.2,0.97c0.01,0.01,0.01,0.02,0.02,0.02c0.43,0.51,0.64,1.18,0.64,1.85v5.24h0.24v-5.24
	c0-0.67,0.21-1.34,0.64-1.85c0.05-0.06,0.1-0.12,0.16-0.17c0.54-0.54,1.29-0.82,2.05-0.82h5.23V86.49z"/>
<path d="M230.39,87.49h-5.21c-0.68,0-1.34-0.21-1.86-0.65c-0.12-0.11-0.24-0.22-0.35-0.34c-0.45-0.52-0.66-1.19-0.66-1.87v-5.21
	h-0.24v5.21c0,0.68-0.22,1.36-0.66,1.87c-0.11,0.12-0.22,0.24-0.35,0.34c-0.51,0.44-1.18,0.65-1.86,0.65h-5.21v0.24h5.22
	c0.84,0,1.65,0.34,2.2,0.97c0.01,0.01,0.01,0.02,0.02,0.02c0.43,0.51,0.64,1.18,0.64,1.85v5.24h0.24v-5.24
	c0-0.67,0.21-1.34,0.64-1.85c0.05-0.06,0.1-0.12,0.16-0.17c0.54-0.54,1.29-0.82,2.05-0.82h5.23V87.49z"/>
<polyline class="st0" points="210.83,76.04 194.44,76.04 194.44,92.44 210.83,92.44 "/>
</svg>
